<?xml version="1.0" encoding="UTF-8"?>
<svg xmlns="http://www.w3.org/2000/svg" xmlns:xlink="http://www.w3.org/1999/xlink" width="2836" height="2835" viewBox="0 0 2836 2835">

<path fill-rule="evenodd" fill="rgb(93.943787%, 76.951599%, 37.988281%)" fill-opacity="1" d="M 1660.71875 652.269531 C 1690.539062 640.199219 1701.699219 687.308594 1663.019531 698.691406 C 1647.699219 703.199219 1635.980469 697.351562 1636.671875 679.851562 C 1637.421875 660.609375 1647.371094 657.679688 1660.71875 652.269531 Z M 1760.761719 590.019531 C 1764.351562 561.320312 1757.878906 561.328125 1754.339844 537.578125 C 1805.210938 529.519531 1804.71875 581.148438 1782.859375 607.910156 C 1766.210938 628.28125 1757.339844 617.308594 1760.761719 590.019531 Z M 1502.578125 519.601562 C 1456.929688 591.269531 1449.441406 568.710938 1399.058594 586.800781 C 1372.078125 596.488281 1352.378906 678.929688 1352.378906 721.378906 C 1352.378906 764.738281 1373.21875 837.511719 1398.511719 874.980469 C 1408.140625 889.25 1407.628906 879.191406 1406.71875 897.019531 C 1394.109375 896.128906 1366.769531 886.230469 1375.039062 909.570312 C 1377.550781 916.648438 1397.339844 934.828125 1402.191406 939.578125 L 1399.75 944.75 C 1387.351562 975.679688 1429.390625 1111.539062 1437.230469 1122.78125 C 1516.308594 1113.390625 1559.730469 1104.871094 1646.75 1139.679688 C 1748.199219 1180.269531 1833.691406 1274.28125 2007.621094 1269.238281 C 2020.75 1252.511719 2020.898438 1230.210938 2063.238281 1178.921875 C 2073.960938 1165.929688 2128.191406 1121.808594 2143.058594 1109.46875 C 2182.339844 1076.851562 2245.75 996.621094 2242.921875 916.621094 C 2241.820312 915.960938 2237.628906 914.210938 2236.878906 913.699219 C 2230.808594 909.550781 2235.109375 913.53125 2229.660156 907.820312 C 2270.609375 870.058594 2305.238281 828.929688 2305.238281 771.148438 C 2305.238281 710.398438 2277.890625 641.699219 2222.148438 644.449219 C 2195.699219 645.75 2173.820312 670.121094 2163.609375 685.96875 C 2145.570312 713.988281 2152.441406 743.128906 2155.019531 776.339844 C 2148.320312 770.550781 2152.941406 777.609375 2146.671875 766.289062 C 2125.429688 727.941406 2156.109375 691.53125 2134.320312 667.5 C 2128.640625 661.25 2122.808594 658.921875 2114.929688 652.328125 C 2055.710938 602.859375 1887.660156 584.890625 1823.898438 545.199219 C 1791.648438 525.121094 1766.75 494.050781 1732.210938 526.359375 C 1682.328125 573 1663.480469 682.839844 1575.640625 590.628906 C 1554.820312 568.78125 1528.679688 533.128906 1502.578125 519.601562 "/>
<path fill-rule="evenodd" fill="rgb(93.943787%, 76.951599%, 37.988281%)" fill-opacity="1" d="M 1065.101562 1705.78125 C 1011.121094 1875.304688 1098.460938 2093.355469 1238.660156 2190.835938 C 1317.261719 2245.484375 1448.480469 2285.441406 1544.589844 2294.21875 C 1543.800781 2226.550781 1538.03125 2180.558594 1562.851562 2118.007812 C 1616.191406 1983.550781 1780.640625 1925.980469 1846.210938 2065.699219 C 1860.589844 2096.34375 1856.300781 2118.605469 1857.441406 2153.410156 C 1882.398438 2141.453125 1906.070312 2096.695312 1922.859375 2064.496094 C 1975.78125 1962.984375 1980.21875 1780.558594 1955.578125 1678.410156 L 1945.71875 1678.101562 C 1944.609375 1678.320312 1936.019531 1681.808594 1935.171875 1682.171875 C 1928.890625 1684.839844 1922.128906 1687.820312 1916.058594 1690.199219 C 1902 1695.710938 1888.238281 1699.21875 1872.390625 1703.941406 C 1842.191406 1712.921875 1815.171875 1718.960938 1783.210938 1725.699219 C 1697.800781 1743.699219 1561.320312 1727.378906 1482.21875 1698.539062 C 1453.671875 1688.121094 1428.859375 1673.328125 1399.179688 1671.601562 C 1362.78125 1669.46875 1332.859375 1666.511719 1298.519531 1660.238281 C 1269.289062 1654.898438 1235.898438 1641.191406 1207.539062 1639.441406 C 1178.488281 1673.710938 1184.429688 1699.570312 1065.101562 1705.78125 "/>
<path fill-rule="evenodd" fill="rgb(76.951599%, 23.997498%, 23.997498%)" fill-opacity="1" d="M 1783.769531 1578.878906 C 1791.328125 1573.808594 1790.980469 1574.148438 1801.488281 1572.128906 C 1871.921875 1558.589844 1893.488281 1533.109375 1910.988281 1532.550781 C 1894.199219 1557.089844 1853.671875 1574.308594 1822.238281 1580.570312 C 1816.96875 1581.621094 1805.890625 1583.46875 1800.789062 1583.390625 Z M 1308.949219 1234.351562 C 1330 1222.96875 1380.839844 1252.710938 1395.039062 1261.308594 C 1417.890625 1275.148438 1448.140625 1294.941406 1456.78125 1317.578125 C 1445.589844 1311.800781 1432.691406 1300.359375 1421.050781 1292.519531 C 1367.710938 1256.640625 1317.089844 1240.480469 1308.949219 1234.351562 Z M 1415.710938 1223.960938 C 1390.140625 1225.53125 1363.019531 1221.328125 1342.488281 1206.75 C 1341.640625 1206.148438 1334.378906 1200.03125 1333.949219 1199.53125 C 1327.839844 1192.480469 1334.089844 1201.558594 1328.609375 1190.390625 C 1345 1196.03125 1354.578125 1203.019531 1371.738281 1208.179688 L 1407.109375 1218.789062 C 1419.789062 1224.140625 1410.269531 1220.078125 1415.710938 1223.960938 Z M 1345.5 1128.480469 C 1335.589844 1114.75 1337.21875 1103.851562 1330.039062 1093.339844 C 1306.761719 1102.011719 1275.679688 1143.78125 1269.53125 1177.851562 C 1300.148438 1202.488281 1307.039062 1239.050781 1278.320312 1272.628906 C 1299.191406 1307.070312 1300.859375 1329.28125 1300.929688 1374.929688 C 1343.308594 1393.03125 1412.738281 1403.609375 1464.019531 1403.558594 C 1473.710938 1399.648438 1468.960938 1374.351562 1518.25 1365.308594 C 1547.890625 1359.871094 1596.039062 1362.160156 1628.679688 1314.449219 C 1640.199219 1297.609375 1631.339844 1307.980469 1638.648438 1305.421875 C 1661.101562 1297.550781 1685.03125 1284.761719 1707.121094 1281 C 1686.808594 1262.191406 1549.011719 1248.101562 1514.261719 1216.460938 L 1669.480469 1254.878906 C 1704.539062 1264.800781 1799.910156 1284.75 1819.800781 1302.011719 C 1741.21875 1295.410156 1751.378906 1268.589844 1665.730469 1309.679688 C 1615.480469 1333.78125 1609.421875 1369.128906 1540.898438 1376.691406 C 1559.160156 1393.550781 1553.460938 1380.359375 1582.738281 1410.390625 C 1604.109375 1432.308594 1624.46875 1454.070312 1634.191406 1488.960938 C 1653.910156 1559.820312 1642.640625 1602.230469 1626.441406 1665.609375 C 1648.898438 1651.78125 1668.089844 1630.410156 1693.28125 1612.910156 C 1742.128906 1578.988281 1758.148438 1578.160156 1799.5 1535.351562 L 1858.21875 1471.628906 C 1865.621094 1462.789062 1875.890625 1442.480469 1885.488281 1436.601562 C 1880.300781 1472.238281 1843.601562 1510.308594 1826.53125 1528.019531 L 1787.421875 1565.328125 C 1740.671875 1603.480469 1687.058594 1625.960938 1653.398438 1661.089844 C 1620.039062 1695.898438 1582.941406 1695 1559.011719 1653.140625 C 1542.808594 1656.960938 1528.398438 1660.449219 1510.839844 1663.761719 C 1475.511719 1670.410156 1469.671875 1668.519531 1459.480469 1674.589844 C 1519.460938 1712.011719 1690.550781 1727.488281 1769.039062 1715.050781 C 1810.21875 1708.53125 1874.109375 1693.109375 1911.460938 1677.960938 C 1998.851562 1642.511719 1977.628906 1645.808594 2025.648438 1609.738281 C 2018.800781 1596.410156 2017.539062 1597.300781 2007.441406 1586.761719 C 1983.320312 1561.578125 1975.488281 1527.71875 1976.230469 1490.828125 C 1970.871094 1487.789062 1970.761719 1492.371094 1964.78125 1490.828125 C 1983.011719 1440.789062 2059.191406 1400.429688 2022.929688 1350.289062 C 1999.789062 1353.789062 1993.441406 1365.808594 1972.28125 1374.238281 C 1982.699219 1358.519531 2007.179688 1345.078125 2025.988281 1337 C 2046.839844 1328.039062 2076.230469 1326.441406 2094.640625 1317.5 C 2118.328125 1305.988281 2109.699219 1276.449219 2100.738281 1256.121094 C 2092.300781 1236.949219 2076.570312 1216.179688 2057.378906 1210.480469 C 2056.628906 1211.109375 2055.601562 1211.238281 2055.300781 1212.550781 C 2055.269531 1212.699219 2033.550781 1237.308594 2025.808594 1266.46875 C 2038.601562 1265.410156 2067.339844 1257.210938 2074.03125 1261.148438 C 2043.21875 1293.058594 1933.089844 1283.941406 1890.898438 1270.75 C 1763.039062 1230.78125 1677.050781 1153.511719 1582.800781 1134.570312 C 1507.121094 1119.351562 1459.160156 1133.75 1388.570312 1144.921875 C 1399.78125 1135.769531 1407 1133.101562 1422.179688 1128.320312 C 1417.300781 1105.410156 1409.550781 1080.101562 1403.25 1057.878906 C 1397.148438 1036.378906 1393.550781 1001.808594 1383.628906 984.820312 C 1296.898438 1014.230469 1349.640625 1036.03125 1345.5 1128.480469 "/>
<path fill-rule="evenodd" fill="rgb(1.997375%, 1.000977%, 1.000977%)" fill-opacity="1" d="M 1475.511719 2298.570312 C 1500.390625 2299.121094 1522.050781 2309.554688 1544.410156 2310.054688 C 1547.480469 2346.875 1587.121094 2473.292969 1602.328125 2512.449219 C 1606.328125 2522.742188 1610.5 2527.640625 1613.320312 2539.742188 C 1574.53125 2519.21875 1547.300781 2526.222656 1509.960938 2551.226562 C 1509.960938 2499.140625 1498.851562 2347.226562 1475.511719 2298.570312 Z M 1229.820312 2202.503906 C 1246.171875 2209.273438 1261.640625 2222.65625 1281.070312 2232.664062 C 1297.75 2241.25 1319.191406 2249.789062 1337.25 2256.90625 C 1376.871094 2272.523438 1450.820312 2287.339844 1457.820312 2297.183594 C 1483.128906 2332.769531 1501.980469 2528.605469 1487.679688 2578.820312 C 1478.949219 2609.496094 1470.539062 2606.074219 1439.148438 2610.277344 C 1367.648438 2619.851562 1283.488281 2627.863281 1249.578125 2566.597656 C 1209.75 2494.628906 1272.910156 2432.652344 1349.449219 2455.394531 C 1361.03125 2458.835938 1370.511719 2463.570312 1377.53125 2469.34375 C 1386.699219 2476.898438 1389.449219 2484.0625 1401.058594 2485.097656 C 1379.199219 2421.15625 1319.960938 2456.578125 1298.960938 2421.484375 C 1270.5 2373.898438 1232.078125 2267.792969 1229.820312 2202.503906 Z M 1657.789062 2618.613281 C 1654.050781 2586.691406 1628.160156 2536.867188 1616.898438 2505.558594 C 1603.21875 2467.511719 1589.640625 2427.074219 1577.25 2388.480469 C 1541.75 2277.917969 1538.011719 2104.289062 1646.398438 2029.253906 C 1776.28125 1939.332031 1885.289062 2054.945312 1831.929688 2233.71875 C 1774.109375 2427.429688 1772.058594 2452.371094 1773.089844 2639.386719 C 1773.441406 2702.339844 1751.398438 2707.558594 1694.460938 2716.230469 C 1622.628906 2727.164062 1562.011719 2731.054688 1511.300781 2680.050781 C 1472.738281 2641.269531 1491.511719 2540.421875 1578.601562 2543.992188 C 1644.671875 2546.699219 1633.121094 2610.648438 1657.789062 2618.613281 Z M 1065.101562 1705.78125 C 1184.429688 1699.570312 1178.488281 1673.710938 1207.539062 1639.441406 C 1235.898438 1641.191406 1269.289062 1654.898438 1298.519531 1660.238281 C 1332.859375 1666.511719 1362.78125 1669.46875 1399.179688 1671.601562 C 1428.859375 1673.328125 1453.671875 1688.121094 1482.21875 1698.539062 C 1561.320312 1727.378906 1697.800781 1743.699219 1783.210938 1725.699219 C 1815.171875 1718.960938 1842.191406 1712.921875 1872.390625 1703.941406 C 1888.238281 1699.21875 1902 1695.710938 1916.058594 1690.199219 C 1922.128906 1687.820312 1928.890625 1684.839844 1935.171875 1682.171875 C 1936.019531 1681.808594 1944.609375 1678.320312 1945.71875 1678.101562 L 1955.578125 1678.410156 C 1980.21875 1780.558594 1975.78125 1962.984375 1922.859375 2064.496094 C 1906.070312 2096.695312 1882.398438 2141.453125 1857.441406 2153.410156 C 1856.300781 2118.605469 1860.589844 2096.34375 1846.210938 2065.699219 C 1780.640625 1925.980469 1616.191406 1983.550781 1562.851562 2118.007812 C 1538.03125 2180.558594 1543.800781 2226.550781 1544.589844 2294.21875 C 1448.480469 2285.441406 1317.261719 2245.484375 1238.660156 2190.835938 C 1098.460938 2093.355469 1011.121094 1875.304688 1065.101562 1705.78125 Z M 1574.359375 1651.621094 C 1583.640625 1643.480469 1579.789062 1646.878906 1596.441406 1642.800781 C 1606.03125 1640.449219 1612.390625 1637.871094 1621.699219 1635.308594 C 1617.148438 1655.421875 1614.921875 1660.351562 1604.679688 1672.789062 C 1587.421875 1669.339844 1580.21875 1664.308594 1574.359375 1651.621094 Z M 1484.480469 1401.46875 C 1490.898438 1389.550781 1497.75 1382.308594 1510.339844 1381.550781 C 1523.21875 1380.769531 1532.171875 1388.148438 1537.789062 1395.609375 Z M 1441.050781 1658.75 C 1354.441406 1658.75 1295.53125 1648.148438 1217.519531 1626.589844 C 1189.628906 1618.878906 1149.148438 1600.109375 1127.429688 1586.210938 C 1074.78125 1552.519531 1091.890625 1552.558594 1062.671875 1524.699219 C 935.1875 1403.128906 981.976562 1294.179688 1050.53125 1290.148438 C 1115.910156 1286.308594 1202.570312 1363.851562 1328.328125 1396.960938 C 1467.648438 1433.648438 1522.570312 1401.671875 1555.109375 1407.949219 C 1570.789062 1410.96875 1606.398438 1455.351562 1615.988281 1476.691406 C 1628.671875 1504.898438 1632.988281 1557.25 1630.609375 1590.589844 C 1628.328125 1622.460938 1628.511719 1619.761719 1600.828125 1627.539062 C 1549.78125 1641.878906 1494 1658.75 1441.050781 1658.75 Z M 1171.109375 1318.570312 C 1174.269531 1314.988281 1260.769531 1282.191406 1267.679688 1281.648438 C 1287.019531 1307.679688 1287.730469 1330.441406 1288.410156 1370.371094 C 1261.898438 1365.070312 1186.050781 1332.808594 1171.109375 1318.570312 Z M 1194.300781 1630.238281 C 1179.78125 1688.96875 1095.019531 1697.058594 1027.46875 1693.828125 C 955.167969 1690.371094 896.636719 1680.921875 860.199219 1639.070312 C 810.941406 1582.488281 819.453125 1549.929688 803.640625 1469.730469 C 793.4375 1417.980469 757.175781 1341.339844 797.929688 1292.621094 L 831.9375 1309.179688 C 832.402344 1308.378906 833.761719 1310.300781 834.636719 1310.910156 C 831.734375 1315.140625 834.050781 1317 827.59375 1318.300781 C 827.34375 1318.351562 826.316406 1318.21875 826.085938 1318.171875 C 825.554688 1318.050781 820.867188 1310.671875 820.867188 1310.671875 C 820.195312 1341.691406 820.792969 1325.460938 825.648438 1330.429688 C 825.941406 1330.730469 826.898438 1331.371094 827.203125 1331.609375 C 834.960938 1337.53125 828.074219 1337.949219 834.472656 1333.761719 C 849.273438 1324.078125 834.296875 1330.339844 836.222656 1321.230469 C 839.671875 1304.921875 823.339844 1310.691406 849.550781 1311.351562 C 853.71875 1320.171875 850.796875 1326.320312 852.441406 1340.058594 C 865.171875 1330.351562 858.320312 1336.859375 853.675781 1314.671875 C 899.851562 1322.160156 931.140625 1322.898438 978.664062 1325.410156 L 970.28125 1360.5 C 966.511719 1369.171875 959.492188 1373.210938 957.328125 1375.988281 C 960.347656 1397.429688 973.71875 1501.910156 929.996094 1492.238281 C 904.609375 1486.640625 903.261719 1430.78125 900.628906 1403.269531 C 897.53125 1370.949219 896.488281 1378.609375 889.804688 1375.050781 L 893.496094 1441.359375 C 904.054688 1521.851562 945.597656 1510.761719 962.023438 1486.460938 C 973.828125 1469 972.699219 1443.019531 973.042969 1420.570312 C 984.207031 1431.121094 989.257812 1458.390625 1014.53125 1488.648438 C 1044.25 1524.210938 1075.609375 1551.128906 1092.808594 1571.089844 C 1116.128906 1598.140625 1166.730469 1624.910156 1194.300781 1630.238281 Z M 653.1875 1437.238281 C 653.1875 1349.140625 716.425781 1272.78125 767.910156 1248.871094 C 775.570312 1283.371094 790.820312 1268.191406 777.578125 1305.78125 C 764.269531 1343.570312 762.824219 1333.550781 771.546875 1375.949219 C 779.578125 1414.980469 796.195312 1477.429688 797.84375 1513.820312 C 801.972656 1604.960938 653.1875 1592.921875 653.1875 1437.238281 Z M 1221.011719 1224.648438 C 1225.820312 1209.148438 1219.199219 1185.460938 1215.800781 1168.359375 C 1251.511719 1166.808594 1345.550781 1238.539062 1224.148438 1285.441406 C 1164.328125 1308.558594 1159.300781 1311.859375 1132.960938 1297.5 C 1111.980469 1286.070312 1065.890625 1272.179688 1037.230469 1278.441406 C 990.300781 1288.710938 1025.089844 1313.769531 947.230469 1312.390625 C 709.988281 1308.160156 769.71875 1176.898438 838.746094 1176.820312 C 833.914062 1202.828125 833.515625 1209.71875 852.089844 1222.308594 C 935.914062 1279.148438 1137.941406 1261.769531 1221.011719 1224.648438 Z M 1168.039062 1096.539062 C 1187.019531 1084.691406 1219.828125 1078.328125 1244.019531 1072.839844 C 1252.078125 1109.21875 1268.921875 1130.910156 1259.039062 1166.199219 C 1235.550781 1158.441406 1239.03125 1155.800781 1208.71875 1152.890625 C 1198.789062 1134.621094 1191.820312 1122.269531 1178.96875 1109.871094 C 1170.921875 1102.101562 1171.761719 1104.28125 1168.039062 1096.539062 Z M 1203.019531 1069.53125 C 1208.5 1056.210938 1206.589844 1056.140625 1219.019531 1048.75 C 1230.441406 1052.488281 1224.328125 1047.898438 1233.140625 1058.261719 C 1225.460938 1066.058594 1216.429688 1066.820312 1203.019531 1069.53125 Z M 1277 1126.671875 C 1273.351562 1123.171875 1249.328125 1057.640625 1244.660156 1045.621094 L 1325.351562 1054.5 L 1329.238281 1077.949219 C 1301.871094 1097.511719 1296.519531 1099.191406 1277 1126.671875 Z M 1638.648438 1305.421875 C 1631.339844 1307.980469 1640.199219 1297.609375 1628.679688 1314.449219 C 1596.039062 1362.160156 1547.890625 1359.871094 1518.25 1365.308594 C 1468.960938 1374.351562 1473.710938 1399.648438 1464.019531 1403.558594 C 1412.738281 1403.609375 1343.308594 1393.03125 1300.929688 1374.929688 C 1300.859375 1329.28125 1299.191406 1307.070312 1278.320312 1272.628906 C 1307.039062 1239.050781 1300.148438 1202.488281 1269.53125 1177.851562 C 1275.679688 1143.78125 1306.761719 1102.011719 1330.039062 1093.339844 C 1337.21875 1103.851562 1335.589844 1114.75 1345.5 1128.480469 C 1349.640625 1036.03125 1296.898438 1014.230469 1383.628906 984.820312 C 1393.550781 1001.808594 1397.148438 1036.378906 1403.25 1057.878906 C 1409.550781 1080.101562 1417.300781 1105.410156 1422.179688 1128.320312 C 1407 1133.101562 1399.78125 1135.769531 1388.570312 1144.921875 C 1459.160156 1133.75 1507.121094 1119.351562 1582.800781 1134.570312 C 1677.050781 1153.511719 1763.039062 1230.78125 1890.898438 1270.75 C 1933.089844 1283.941406 2043.21875 1293.058594 2074.03125 1261.148438 C 2067.339844 1257.210938 2038.601562 1265.410156 2025.808594 1266.46875 C 2033.550781 1237.308594 2055.269531 1212.699219 2055.300781 1212.550781 C 2055.601562 1211.238281 2056.628906 1211.109375 2057.378906 1210.480469 C 2076.570312 1216.179688 2092.300781 1236.949219 2100.738281 1256.121094 C 2109.699219 1276.449219 2118.328125 1305.988281 2094.640625 1317.5 C 2076.230469 1326.441406 2046.839844 1328.039062 2025.988281 1337 C 2007.179688 1345.078125 1982.699219 1358.519531 1972.28125 1374.238281 C 1993.441406 1365.808594 1999.789062 1353.789062 2022.929688 1350.289062 C 2059.191406 1400.429688 1983.011719 1440.789062 1964.78125 1490.828125 C 1970.761719 1492.371094 1970.871094 1487.789062 1976.230469 1490.828125 C 1975.488281 1527.71875 1983.320312 1561.578125 2007.441406 1586.761719 C 2017.539062 1597.300781 2018.800781 1596.410156 2025.648438 1609.738281 C 1977.628906 1645.808594 1998.851562 1642.511719 1911.460938 1677.960938 C 1874.109375 1693.109375 1810.21875 1708.53125 1769.039062 1715.050781 C 1690.550781 1727.488281 1519.460938 1712.011719 1459.480469 1674.589844 C 1469.671875 1668.519531 1475.511719 1670.410156 1510.839844 1663.761719 C 1528.398438 1660.449219 1542.808594 1656.960938 1559.011719 1653.140625 C 1582.941406 1695 1620.039062 1695.898438 1653.398438 1661.089844 C 1687.058594 1625.960938 1740.671875 1603.480469 1787.421875 1565.328125 L 1826.53125 1528.019531 C 1843.601562 1510.308594 1880.300781 1472.238281 1885.488281 1436.601562 C 1875.890625 1442.480469 1865.621094 1462.789062 1858.21875 1471.628906 L 1799.5 1535.351562 C 1758.148438 1578.160156 1742.128906 1578.988281 1693.28125 1612.910156 C 1668.089844 1630.410156 1648.898438 1651.78125 1626.441406 1665.609375 C 1642.640625 1602.230469 1653.910156 1559.820312 1634.191406 1488.960938 C 1624.46875 1454.070312 1604.109375 1432.308594 1582.738281 1410.390625 C 1553.460938 1380.359375 1559.160156 1393.550781 1540.898438 1376.691406 C 1609.421875 1369.128906 1615.480469 1333.78125 1665.730469 1309.679688 C 1751.378906 1268.589844 1741.21875 1295.410156 1819.800781 1302.011719 C 1799.910156 1284.75 1704.539062 1264.800781 1669.480469 1254.878906 L 1514.261719 1216.460938 C 1549.011719 1248.101562 1686.808594 1262.191406 1707.121094 1281 C 1685.03125 1284.761719 1661.101562 1297.550781 1638.648438 1305.421875 Z M 998.578125 1048.480469 C 1000.390625 1022.121094 938.03125 978.671875 1035.230469 973 C 1120.738281 968.011719 1060.558594 1031.570312 1076.371094 1055.449219 C 1081.421875 1063.089844 1113.738281 1069.578125 1125.960938 1078.539062 C 1140.480469 1089.179688 1150.75 1102.730469 1163.351562 1113.988281 C 1192.941406 1140.410156 1209.488281 1173.621094 1207.71875 1216.558594 C 1104.070312 1242.109375 995.488281 1266.761719 887.113281 1225.539062 C 861.46875 1215.789062 841.546875 1209.359375 853.183594 1178.890625 C 862.027344 1155.75 874.078125 1139.761719 889.925781 1123.519531 C 908.097656 1104.878906 915.347656 1096.988281 938.882812 1080.511719 C 979.078125 1052.359375 980.558594 1068.011719 998.578125 1048.480469 Z M 1502.578125 519.601562 C 1528.679688 533.128906 1554.820312 568.78125 1575.640625 590.628906 C 1663.480469 682.839844 1682.328125 573 1732.210938 526.359375 C 1766.75 494.050781 1791.648438 525.121094 1823.898438 545.199219 C 1887.660156 584.890625 2055.710938 602.859375 2114.929688 652.328125 C 2122.808594 658.921875 2128.640625 661.25 2134.320312 667.5 C 2156.109375 691.53125 2125.429688 727.941406 2146.671875 766.289062 C 2152.941406 777.609375 2148.320312 770.550781 2155.019531 776.339844 C 2152.441406 743.128906 2145.570312 713.988281 2163.609375 685.96875 C 2173.820312 670.121094 2195.699219 645.75 2222.148438 644.449219 C 2277.890625 641.699219 2305.238281 710.398438 2305.238281 771.148438 C 2305.238281 828.929688 2270.609375 870.058594 2229.660156 907.820312 C 2235.109375 913.53125 2230.808594 909.550781 2236.878906 913.699219 C 2237.628906 914.210938 2241.820312 915.960938 2242.921875 916.621094 C 2245.75 996.621094 2182.339844 1076.851562 2143.058594 1109.46875 C 2128.191406 1121.808594 2073.960938 1165.929688 2063.238281 1178.921875 C 2020.898438 1230.210938 2020.75 1252.511719 2007.621094 1269.238281 C 1833.691406 1274.28125 1748.199219 1180.269531 1646.75 1139.679688 C 1559.730469 1104.871094 1516.308594 1113.390625 1437.230469 1122.78125 C 1429.390625 1111.539062 1387.351562 975.679688 1399.75 944.75 L 1402.191406 939.578125 C 1397.339844 934.828125 1377.550781 916.648438 1375.039062 909.570312 C 1366.769531 886.230469 1394.109375 896.128906 1406.71875 897.019531 C 1407.628906 879.191406 1408.140625 889.25 1398.511719 874.980469 C 1373.21875 837.511719 1352.378906 764.738281 1352.378906 721.378906 C 1352.378906 678.929688 1372.078125 596.488281 1399.058594 586.800781 C 1449.441406 568.710938 1456.929688 591.269531 1502.578125 519.601562 Z M 2087.019531 618.019531 C 2091.328125 601.789062 2092.058594 596.960938 2108.328125 592.398438 C 2147.839844 581.328125 2182.710938 602.960938 2185.671875 646.679688 C 2167.671875 655.628906 2171.589844 662.210938 2151.261719 673.558594 C 2141.699219 644.320312 2103.050781 632.019531 2087.019531 618.019531 Z M 1486.960938 429.859375 C 1526.371094 406.128906 1558.210938 466.191406 1520.351562 486.789062 C 1470.679688 513.808594 1453.828125 449.808594 1486.960938 429.859375 Z M 1437.230469 473.5 C 1426.199219 454.101562 1431.359375 448.308594 1436.089844 429.71875 C 1447.71875 434.21875 1449.898438 427.320312 1442.71875 461.640625 C 1438.171875 483.378906 1443.339844 465.828125 1437.230469 473.5 Z M 1406.140625 482.800781 C 1362.5 477.539062 1369.738281 434.230469 1403.410156 420.851562 C 1397.519531 452.660156 1402.101562 455.039062 1406.140625 482.800781 Z M 1381.648438 313.53125 C 1440.800781 292.351562 1473.25 405.5 1460.101562 418.539062 C 1449.191406 429.359375 1361.050781 369.839844 1381.648438 313.53125 Z M 1484.210938 408.988281 C 1476.121094 401.238281 1461.46875 350.660156 1458.410156 340.03125 C 1451.691406 316.710938 1468.378906 289.429688 1497.488281 293.820312 C 1525.070312 339.878906 1490.171875 388.96875 1484.210938 408.988281 Z M 1444.878906 315.601562 C 1428.429688 311.210938 1424.539062 297.519531 1397.339844 293.800781 C 1353.78125 287.859375 1356.550781 335.589844 1374.601562 370.570312 C 1381.609375 384.179688 1391.871094 395.300781 1395.121094 407.46875 C 1355.910156 417.949219 1310.53125 477.601562 1387.460938 495.519531 C 1368.820312 530.75 1384.421875 568.769531 1374.011719 589.21875 C 1327.558594 680.46875 1325.921875 748.109375 1364.980469 843.390625 C 1369.828125 855.210938 1376.710938 865.050781 1379.800781 878.339844 C 1333.148438 889.199219 1370.648438 923.070312 1376.730469 938.828125 C 1379.53125 946.101562 1379.800781 957.839844 1379.800781 970.210938 C 1369.648438 972.570312 1344.128906 984.820312 1335.269531 990.761719 C 1319.351562 1001.429688 1318.550781 1014.28125 1318.550781 1039.121094 C 1291.628906 1032.839844 1257.089844 1031.460938 1226.679688 1031.460938 C 1207.03125 1031.460938 1199.28125 1044.558594 1191.53125 1057.558594 C 1164.679688 1102.609375 1147.699219 1072.128906 1125.230469 1060.171875 C 1118.78125 1056.738281 1095.28125 1048.269531 1088.871094 1046.769531 C 1088.871094 1020.769531 1100.351562 1015.601562 1100.351562 1000.839844 C 1100.351562 941.808594 966.367188 944.910156 966.367188 997.011719 C 966.367188 1019.070312 973.019531 1024.300781 985.507812 1042.941406 C 932.191406 1047.378906 866.519531 1118.808594 843.867188 1161.621094 C 809.414062 1161.621094 778.769531 1180.640625 768.71875 1205.140625 C 757.816406 1231.71875 770.941406 1225.941406 746.089844 1243.761719 C 648.921875 1313.421875 605.382812 1428.898438 666.046875 1538.5 C 674.546875 1553.859375 681.261719 1561.761719 695.128906 1570.671875 C 752.269531 1607.371094 777.78125 1575.800781 801.757812 1559.738281 C 812.675781 1580.378906 818.738281 1605.109375 831.527344 1625.671875 C 875.957031 1697.089844 958.1875 1709.039062 1046.761719 1709.039062 C 1044.46875 1736.53125 1035.269531 1755.859375 1035.269531 1789.429688 C 1035.269531 1883.121094 1038.71875 1935.011719 1081.199219 2019.132812 C 1098.410156 2053.21875 1117.328125 2086.628906 1140.171875 2117.105469 C 1148.269531 2127.90625 1155.859375 2134.722656 1164.859375 2146.015625 C 1178.691406 2163.367188 1209.96875 2177.433594 1214.421875 2199.816406 C 1220.488281 2230.410156 1219.480469 2260.273438 1229.089844 2292.335938 C 1245.101562 2345.777344 1266.410156 2392.300781 1291.761719 2440.210938 C 1204.789062 2447.449219 1207.449219 2568.503906 1264.21875 2609.386719 C 1302.421875 2636.886719 1380.789062 2632.890625 1429.269531 2627.488281 C 1445.511719 2625.675781 1463.058594 2620.496094 1479.339844 2620.132812 C 1479.339844 2667.824219 1486.601562 2683.882812 1525.160156 2712.113281 C 1578.140625 2750.894531 1723.691406 2746.949219 1771.449219 2701.703125 C 1805.429688 2669.519531 1785.589844 2595.140625 1785.589844 2547.398438 C 1785.589844 2487.292969 1799.839844 2409.515625 1813.890625 2353.671875 L 1838.378906 2267.140625 C 1842.949219 2250.734375 1846.890625 2238.429688 1851.199219 2222.546875 C 1864.660156 2172.996094 1852.679688 2186.085938 1888.050781 2148.378906 C 1897.410156 2138.402344 1904.589844 2125.953125 1911.949219 2114.859375 C 1978.828125 2014.09375 1996.769531 1870.9375 1979.191406 1745.121094 L 1969.339844 1666.929688 C 1981.488281 1664.101562 2042.070312 1624.789062 2042.070312 1609.511719 C 2042.070312 1589.300781 1981.710938 1562.429688 1994 1475.511719 C 1995.539062 1464.601562 1990.390625 1473.808594 1998.898438 1463.019531 C 2029.070312 1424.769531 2066.121094 1398.050781 2038.238281 1345.371094 C 2054.640625 1345.371094 2082.601562 1338.269531 2095.328125 1333.550781 C 2158.53125 1310.121094 2108.730469 1210.539062 2068.871094 1199.898438 C 2083.671875 1171.921875 2161.03125 1113.761719 2186.660156 1088 C 2218.429688 1056.078125 2260.269531 976.820312 2260.269531 928.101562 C 2260.269531 902.921875 2245.5 908.949219 2268.679688 886.769531 C 2329.019531 829.03125 2336.640625 748.070312 2296.050781 674.121094 C 2275.730469 637.101562 2238.621094 624.109375 2199.019531 633.328125 C 2193.691406 569.300781 2086.78125 549.890625 2072.691406 610.371094 C 2046.828125 604.339844 2016.289062 591.039062 1991.539062 584.328125 C 1929.761719 567.589844 1866.101562 555.769531 1814.101562 520.601562 C 1758.921875 483.269531 1736.378906 489.410156 1691.441406 546.851562 C 1643.980469 607.53125 1654.648438 645.949219 1572.171875 563.46875 C 1557.480469 548.78125 1533.148438 516 1513.789062 510.828125 L 1513.789062 503.179688 C 1537.929688 501.171875 1548.621094 486.410156 1551.710938 464.53125 C 1554.101562 447.558594 1551.78125 446.558594 1568.730469 443.269531 C 1589.640625 439.210938 1587.761719 448.261719 1598.011719 434.269531 C 1580.699219 433.890625 1582.789062 430.441406 1563.550781 430.441406 C 1576.71875 412.46875 1572.578125 433.820312 1575.039062 411.300781 C 1560.570312 418.25 1554.679688 417.179688 1540.589844 426.621094 C 1532.269531 415.261719 1522.140625 411.300781 1502.300781 411.300781 C 1503.589844 395.808594 1510.730469 394.148438 1516.160156 375.390625 C 1524.019531 348.191406 1528.261719 321.878906 1517.878906 296.199219 C 1502.558594 258.289062 1453.039062 280.570312 1444.878906 315.601562 "/>
<path fill-rule="evenodd" fill="rgb(93.943787%, 76.951599%, 37.988281%)" fill-opacity="1" d="M 1657.789062 2618.613281 C 1633.121094 2610.648438 1644.671875 2546.699219 1578.601562 2543.992188 C 1491.511719 2540.421875 1472.738281 2641.269531 1511.300781 2680.050781 C 1562.011719 2731.054688 1622.628906 2727.164062 1694.460938 2716.230469 C 1751.398438 2707.558594 1773.441406 2702.339844 1773.089844 2639.386719 C 1772.058594 2452.371094 1774.109375 2427.429688 1831.929688 2233.71875 C 1885.289062 2054.945312 1776.28125 1939.332031 1646.398438 2029.253906 C 1538.011719 2104.289062 1541.75 2277.917969 1577.25 2388.480469 C 1589.640625 2427.074219 1603.21875 2467.511719 1616.898438 2505.558594 C 1628.160156 2536.867188 1654.050781 2586.691406 1657.789062 2618.613281 "/>
<path fill-rule="evenodd" fill="rgb(93.943787%, 76.951599%, 37.988281%)" fill-opacity="1" d="M 1441.050781 1658.75 C 1494 1658.75 1549.78125 1641.878906 1600.828125 1627.539062 C 1628.511719 1619.761719 1628.328125 1622.460938 1630.609375 1590.589844 C 1632.988281 1557.25 1628.671875 1504.898438 1615.988281 1476.691406 C 1606.398438 1455.351562 1570.789062 1410.96875 1555.109375 1407.949219 C 1522.570312 1401.671875 1467.648438 1433.648438 1328.328125 1396.960938 C 1202.570312 1363.851562 1115.910156 1286.308594 1050.53125 1290.148438 C 981.976562 1294.179688 935.1875 1403.128906 1062.671875 1524.699219 C 1091.890625 1552.558594 1074.78125 1552.519531 1127.429688 1586.210938 C 1149.148438 1600.109375 1189.628906 1618.878906 1217.519531 1626.589844 C 1295.53125 1648.148438 1354.441406 1658.75 1441.050781 1658.75 "/>
<path fill-rule="evenodd" fill="rgb(73.046875%, 65.039062%, 53.90625%)" fill-opacity="1" d="M 809.414062 1452.03125 C 800.019531 1441.851562 801.148438 1407.261719 802.042969 1390.890625 C 803.273438 1368.28125 799.917969 1380.378906 809.414062 1374.941406 C 813.226562 1380.261719 811.90625 1374.570312 813.808594 1383.859375 L 815.242188 1416.140625 L 854.839844 1421.859375 C 855.6875 1406.441406 851.949219 1383.789062 859.179688 1373.511719 C 870.285156 1377.898438 867.144531 1401.710938 868.054688 1433.570312 L 871.566406 1483.441406 C 871.410156 1502.449219 871.019531 1493.070312 866.835938 1497.730469 C 855.164062 1487.589844 859.117188 1457.539062 856.222656 1438.78125 C 849.292969 1431.960938 863.066406 1434.269531 838.242188 1430.769531 C 831.324219 1429.789062 823.9375 1429.679688 817.070312 1429.320312 L 811.0625 1449.609375 C 810.78125 1450.199219 810.050781 1451.289062 809.414062 1452.03125 Z M 795.074219 1325.25 C 786.75 1298.449219 800.152344 1302.089844 803.5625 1299.828125 C 816.542969 1312.808594 822.847656 1304.988281 810.464844 1328.109375 Z M 1194.300781 1630.238281 C 1166.730469 1624.910156 1116.128906 1598.140625 1092.808594 1571.089844 C 1075.609375 1551.128906 1044.25 1524.210938 1014.53125 1488.648438 C 989.257812 1458.390625 984.207031 1431.121094 973.042969 1420.570312 C 972.699219 1443.019531 973.828125 1469 962.023438 1486.460938 C 945.597656 1510.761719 904.054688 1521.851562 893.496094 1441.359375 L 889.804688 1375.050781 C 896.488281 1378.609375 897.53125 1370.949219 900.628906 1403.269531 C 903.261719 1430.78125 904.609375 1486.640625 929.996094 1492.238281 C 973.71875 1501.910156 960.347656 1397.429688 957.328125 1375.988281 C 959.492188 1373.210938 966.511719 1369.171875 970.28125 1360.5 L 978.664062 1325.410156 C 931.140625 1322.898438 899.851562 1322.160156 853.675781 1314.671875 C 858.320312 1336.859375 865.171875 1330.351562 852.441406 1340.058594 C 850.796875 1326.320312 853.71875 1320.171875 849.550781 1311.351562 C 823.339844 1310.691406 839.671875 1304.921875 836.222656 1321.230469 C 834.296875 1330.339844 849.273438 1324.078125 834.472656 1333.761719 C 828.074219 1337.949219 834.960938 1337.53125 827.203125 1331.609375 C 826.898438 1331.371094 825.941406 1330.730469 825.648438 1330.429688 C 820.792969 1325.460938 820.195312 1341.691406 820.867188 1310.671875 C 820.867188 1310.671875 825.554688 1318.050781 826.085938 1318.171875 C 826.316406 1318.21875 827.34375 1318.351562 827.59375 1318.300781 C 834.050781 1317 831.734375 1315.140625 834.636719 1310.910156 C 833.761719 1310.300781 832.402344 1308.378906 831.9375 1309.179688 L 797.929688 1292.621094 C 757.175781 1341.339844 793.4375 1417.980469 803.640625 1469.730469 C 819.453125 1549.929688 810.941406 1582.488281 860.199219 1639.070312 C 896.636719 1680.921875 955.167969 1690.371094 1027.46875 1693.828125 C 1095.019531 1697.058594 1179.78125 1688.96875 1194.300781 1630.238281 "/>
<path fill-rule="evenodd" fill="rgb(93.943787%, 76.951599%, 37.988281%)" fill-opacity="1" d="M 1337.25 2256.90625 C 1319.191406 2249.789062 1297.75 2241.25 1281.070312 2232.664062 C 1261.640625 2222.65625 1246.171875 2209.273438 1229.820312 2202.503906 C 1232.078125 2267.792969 1270.5 2373.898438 1298.960938 2421.484375 C 1319.960938 2456.578125 1379.199219 2421.15625 1401.058594 2485.097656 C 1389.449219 2484.0625 1386.699219 2476.898438 1377.53125 2469.34375 C 1370.511719 2463.570312 1361.03125 2458.835938 1349.449219 2455.394531 C 1272.910156 2432.652344 1209.75 2494.628906 1249.578125 2566.597656 C 1283.488281 2627.863281 1367.648438 2619.851562 1439.148438 2610.277344 C 1470.539062 2606.074219 1478.949219 2609.496094 1487.679688 2578.820312 C 1501.980469 2528.605469 1483.128906 2332.769531 1457.820312 2297.183594 C 1450.820312 2287.339844 1376.871094 2272.523438 1337.25 2256.90625 "/>
<path fill-rule="evenodd" fill="rgb(73.046875%, 65.039062%, 53.90625%)" fill-opacity="1" d="M 928.558594 1190.148438 C 991.734375 1202.289062 1024.019531 1210.441406 1094.488281 1209.960938 C 1066.640625 1230.871094 978.679688 1212.871094 943.039062 1200.148438 C 939.492188 1198.878906 937.878906 1198.738281 934.753906 1196.890625 C 921.796875 1189.179688 932.992188 1194.960938 928.558594 1190.148438 Z M 998.578125 1048.480469 C 980.558594 1068.011719 979.078125 1052.359375 938.882812 1080.511719 C 915.347656 1096.988281 908.097656 1104.878906 889.925781 1123.519531 C 874.078125 1139.761719 862.027344 1155.75 853.183594 1178.890625 C 841.546875 1209.359375 861.46875 1215.789062 887.113281 1225.539062 C 995.488281 1266.761719 1104.070312 1242.109375 1207.71875 1216.558594 C 1209.488281 1173.621094 1192.941406 1140.410156 1163.351562 1113.988281 C 1150.75 1102.730469 1140.480469 1089.179688 1125.960938 1078.539062 C 1113.738281 1069.578125 1081.421875 1063.089844 1076.371094 1055.449219 C 1060.558594 1031.570312 1120.738281 968.011719 1035.230469 973 C 938.03125 978.671875 1000.390625 1022.121094 998.578125 1048.480469 "/>
<path fill-rule="evenodd" fill="rgb(93.943787%, 76.951599%, 37.988281%)" fill-opacity="1" d="M 653.1875 1437.238281 C 653.1875 1592.921875 801.972656 1604.960938 797.84375 1513.820312 C 796.195312 1477.429688 779.578125 1414.980469 771.546875 1375.949219 C 762.824219 1333.550781 764.269531 1343.570312 777.578125 1305.78125 C 790.820312 1268.191406 775.570312 1283.371094 767.910156 1248.871094 C 716.425781 1272.78125 653.1875 1349.140625 653.1875 1437.238281 "/>
<path fill-rule="evenodd" fill="rgb(74.021912%, 65.039062%, 53.90625%)" fill-opacity="1" d="M 1221.011719 1224.648438 C 1137.941406 1261.769531 935.914062 1279.148438 852.089844 1222.308594 C 833.515625 1209.71875 833.914062 1202.828125 838.746094 1176.820312 C 769.71875 1176.898438 709.988281 1308.160156 947.230469 1312.390625 C 1025.089844 1313.769531 990.300781 1288.710938 1037.230469 1278.441406 C 1065.890625 1272.179688 1111.980469 1286.070312 1132.960938 1297.5 C 1159.300781 1311.859375 1164.328125 1308.558594 1224.148438 1285.441406 C 1345.550781 1238.539062 1251.511719 1166.808594 1215.800781 1168.359375 C 1219.199219 1185.460938 1225.820312 1209.148438 1221.011719 1224.648438 "/>
<path fill-rule="evenodd" fill="rgb(74.021912%, 65.039062%, 53.90625%)" fill-opacity="1" d="M 1171.109375 1318.570312 C 1186.050781 1332.808594 1261.898438 1365.070312 1288.410156 1370.371094 C 1287.730469 1330.441406 1287.019531 1307.679688 1267.679688 1281.648438 C 1260.769531 1282.191406 1174.269531 1314.988281 1171.109375 1318.570312 "/>
<path fill-rule="evenodd" fill="rgb(100%, 100%, 100%)" fill-opacity="1" d="M 1381.648438 313.53125 C 1361.050781 369.839844 1449.191406 429.359375 1460.101562 418.539062 C 1473.25 405.5 1440.800781 292.351562 1381.648438 313.53125 "/>
<path fill-rule="evenodd" fill="rgb(93.943787%, 76.951599%, 37.988281%)" fill-opacity="1" d="M 1168.039062 1096.539062 C 1171.761719 1104.28125 1170.921875 1102.101562 1178.96875 1109.871094 C 1191.820312 1122.269531 1198.789062 1134.621094 1208.71875 1152.890625 C 1239.03125 1155.800781 1235.550781 1158.441406 1259.039062 1166.199219 C 1268.921875 1130.910156 1252.078125 1109.21875 1244.019531 1072.839844 C 1219.828125 1078.328125 1187.019531 1084.691406 1168.039062 1096.539062 "/>
<path fill-rule="evenodd" fill="rgb(93.943787%, 76.951599%, 37.988281%)" fill-opacity="1" d="M 2087.019531 618.019531 C 2103.050781 632.019531 2141.699219 644.320312 2151.261719 673.558594 C 2171.589844 662.210938 2167.671875 655.628906 2185.671875 646.679688 C 2182.710938 602.960938 2147.839844 581.328125 2108.328125 592.398438 C 2092.058594 596.960938 2091.328125 601.789062 2087.019531 618.019531 "/>
<path fill-rule="evenodd" fill="rgb(100%, 100%, 100%)" fill-opacity="1" d="M 1484.210938 408.988281 C 1490.171875 388.96875 1525.070312 339.878906 1497.488281 293.820312 C 1468.378906 289.429688 1451.691406 316.710938 1458.410156 340.03125 C 1461.46875 350.660156 1476.121094 401.238281 1484.210938 408.988281 "/>
<path fill-rule="evenodd" fill="rgb(76.951599%, 23.997498%, 23.997498%)" fill-opacity="1" d="M 1277 1126.671875 C 1296.519531 1099.191406 1301.871094 1097.511719 1329.238281 1077.949219 L 1325.351562 1054.5 L 1244.660156 1045.621094 C 1249.328125 1057.640625 1273.351562 1123.171875 1277 1126.671875 "/>
<path fill-rule="evenodd" fill="rgb(94.921875%, 86.914062%, 50.976562%)" fill-opacity="1" d="M 1517.429688 458.511719 C 1526.039062 469.339844 1526.589844 466.300781 1513.789062 472.871094 C 1508.191406 465.378906 1501.25 464.828125 1517.429688 458.511719 Z M 1486.960938 429.859375 C 1453.828125 449.808594 1470.679688 513.808594 1520.351562 486.789062 C 1558.210938 466.191406 1526.371094 406.128906 1486.960938 429.859375 "/>
<path fill-rule="evenodd" fill="rgb(1.000977%, 1.000977%, 1.000977%)" fill-opacity="1" d="M 809.414062 1452.03125 C 810.050781 1451.289062 810.78125 1450.199219 811.0625 1449.609375 L 817.070312 1429.320312 C 823.9375 1429.679688 831.324219 1429.789062 838.242188 1430.769531 C 863.066406 1434.269531 849.292969 1431.960938 856.222656 1438.78125 C 859.117188 1457.539062 855.164062 1487.589844 866.835938 1497.730469 C 871.019531 1493.070312 871.410156 1502.449219 871.566406 1483.441406 L 868.054688 1433.570312 C 867.144531 1401.710938 870.285156 1377.898438 859.179688 1373.511719 C 851.949219 1383.789062 855.6875 1406.441406 854.839844 1421.859375 L 815.242188 1416.140625 L 813.808594 1383.859375 C 811.90625 1374.570312 813.226562 1380.261719 809.414062 1374.941406 C 799.917969 1380.378906 803.273438 1368.28125 802.042969 1390.890625 C 801.148438 1407.261719 800.019531 1441.851562 809.414062 1452.03125 "/>
<path fill-rule="evenodd" fill="rgb(0%, 0%, 0%)" fill-opacity="1" d="M 1754.339844 537.578125 C 1757.878906 561.328125 1764.351562 561.320312 1760.761719 590.019531 C 1757.339844 617.308594 1766.210938 628.28125 1782.859375 607.910156 C 1804.71875 581.148438 1805.210938 529.519531 1754.339844 537.578125 "/>
<path fill-rule="evenodd" fill="rgb(0%, 0%, 0%)" fill-opacity="1" d="M 1660.71875 652.269531 C 1647.371094 657.679688 1637.421875 660.609375 1636.671875 679.851562 C 1635.980469 697.351562 1647.699219 703.199219 1663.019531 698.691406 C 1701.699219 687.308594 1690.539062 640.199219 1660.71875 652.269531 "/>
<path fill-rule="evenodd" fill="rgb(1.997375%, 1.000977%, 1.000977%)" fill-opacity="1" d="M 1308.949219 1234.351562 C 1317.089844 1240.480469 1367.710938 1256.640625 1421.050781 1292.519531 C 1432.691406 1300.359375 1445.589844 1311.800781 1456.78125 1317.578125 C 1448.140625 1294.941406 1417.890625 1275.148438 1395.039062 1261.308594 C 1380.839844 1252.710938 1330 1222.96875 1308.949219 1234.351562 "/>
<path fill-rule="evenodd" fill="rgb(1.000977%, 1.000977%, 1.997375%)" fill-opacity="1" d="M 928.558594 1190.148438 C 932.992188 1194.960938 921.796875 1189.179688 934.753906 1196.890625 C 937.878906 1198.738281 939.492188 1198.878906 943.039062 1200.148438 C 978.679688 1212.871094 1066.640625 1230.871094 1094.488281 1209.960938 C 1024.019531 1210.441406 991.734375 1202.289062 928.558594 1190.148438 "/>
<path fill-rule="evenodd" fill="rgb(1.000977%, 0%, 0%)" fill-opacity="1" d="M 1783.769531 1578.878906 L 1800.789062 1583.390625 C 1805.890625 1583.46875 1816.96875 1581.621094 1822.238281 1580.570312 C 1853.671875 1574.308594 1894.199219 1557.089844 1910.988281 1532.550781 C 1893.488281 1533.109375 1871.921875 1558.589844 1801.488281 1572.128906 C 1790.980469 1574.148438 1791.328125 1573.808594 1783.769531 1578.878906 "/>
<path fill-rule="evenodd" fill="rgb(94.921875%, 86.914062%, 50.976562%)" fill-opacity="1" d="M 1406.140625 482.800781 C 1402.101562 455.039062 1397.519531 452.660156 1403.410156 420.851562 C 1369.738281 434.230469 1362.5 477.539062 1406.140625 482.800781 "/>
<path fill-rule="evenodd" fill="rgb(76.951599%, 23.997498%, 23.997498%)" fill-opacity="1" d="M 1574.359375 1651.621094 C 1580.21875 1664.308594 1587.421875 1669.339844 1604.679688 1672.789062 C 1614.921875 1660.351562 1617.148438 1655.421875 1621.699219 1635.308594 C 1612.390625 1637.871094 1606.03125 1640.449219 1596.441406 1642.800781 C 1579.789062 1646.878906 1583.640625 1643.480469 1574.359375 1651.621094 "/>
<path fill-rule="evenodd" fill="rgb(1.997375%, 1.000977%, 1.000977%)" fill-opacity="1" d="M 1415.710938 1223.960938 C 1410.269531 1220.078125 1419.789062 1224.140625 1407.109375 1218.789062 L 1371.738281 1208.179688 C 1354.578125 1203.019531 1345 1196.03125 1328.609375 1190.390625 C 1334.089844 1201.558594 1327.839844 1192.480469 1333.949219 1199.53125 C 1334.378906 1200.03125 1341.640625 1206.148438 1342.488281 1206.75 C 1363.019531 1221.328125 1390.140625 1225.53125 1415.710938 1223.960938 "/>
<path fill-rule="evenodd" fill="rgb(77.929688%, 25%, 25%)" fill-opacity="1" d="M 1484.480469 1401.46875 L 1537.789062 1395.609375 C 1532.171875 1388.148438 1523.21875 1380.769531 1510.339844 1381.550781 C 1497.75 1382.308594 1490.898438 1389.550781 1484.480469 1401.46875 "/>
<path fill-rule="evenodd" fill="rgb(73.046875%, 65.039062%, 53.90625%)" fill-opacity="1" d="M 795.074219 1325.25 L 810.464844 1328.109375 C 822.847656 1304.988281 816.542969 1312.808594 803.5625 1299.828125 C 800.152344 1302.089844 786.75 1298.449219 795.074219 1325.25 "/>
<path fill-rule="evenodd" fill="rgb(94.921875%, 86.914062%, 50.976562%)" fill-opacity="1" d="M 1437.230469 473.5 C 1443.339844 465.828125 1438.171875 483.378906 1442.71875 461.640625 C 1449.898438 427.320312 1447.71875 434.21875 1436.089844 429.71875 C 1431.359375 448.308594 1426.199219 454.101562 1437.230469 473.5 "/>
<path fill-rule="evenodd" fill="rgb(77.929688%, 23.997498%, 25%)" fill-opacity="1" d="M 1203.019531 1069.53125 C 1216.429688 1066.820312 1225.460938 1066.058594 1233.140625 1058.261719 C 1224.328125 1047.898438 1230.441406 1052.488281 1219.019531 1048.75 C 1206.589844 1056.140625 1208.5 1056.210938 1203.019531 1069.53125 "/>
<path fill-rule="evenodd" fill="rgb(1.997375%, 1.997375%, 1.997375%)" fill-opacity="1" d="M 1513.789062 472.871094 C 1526.589844 466.300781 1526.039062 469.339844 1517.429688 458.511719 C 1501.25 464.828125 1508.191406 465.378906 1513.789062 472.871094 "/>
</svg>
